<?xml version="1.0" encoding="utf-8"?>
<!-- Generator: Adobe Illustrator 21.0.0, SVG Export Plug-In . SVG Version: 6.00 Build 0)  -->
<svg version="1.1" id="Layer_1" xmlns="http://www.w3.org/2000/svg" xmlns:xlink="http://www.w3.org/1999/xlink" x="0px" y="0px"
	 viewBox="0 0 699.1 807.2" style="enable-background:new 0 0 699.1 807.2;" xml:space="preserve">
<style type="text/css">
	.st0{fill:#161414;}
	.st1{fill:#FCFCFC;}
	.st2{fill:#FFFFFF;}
	.st3{font-family:'Righteous-Regular';}
	.st4{font-size:180px;}
	.st5{font-family:'Lobster-Regular';}
	.st6{font-size:100px;}
</style>
<polygon class="st0" points="699.1,201.8 699.1,605.4 349.5,807.2 0,605.4 0,201.8 349.5,0 "/>
<polygon class="st1" points="664.8,221.6 664.8,585.6 349.5,767.7 34.2,585.6 34.2,221.6 349.5,39.5 "/>
<path d="M311.7,593.3"/>
<g>
	<g>
		<path d="M312,620.8l26.9-24.1l10.5-9.6l11.2-10.9l1.5-1.6c0,0,1.6-2.2,1.1-4.1c0,0,0.4-5.5,5.1-8.7l6.6-6.6l10.1-9.1
			c0,0,1.5,0,1,1c-0.5,1-16.2,16.2-16.2,16.2s-0.7,1.3,1,1l16.7-15.7c0,0,1.4-0.4,0.9,0.9L372,565.9c0,0-0.6,0.7-0.1,1.2l-57.2,57.2
			C314.7,624.4,312.9,622.3,312,620.8z"/>
		<path d="M318.3,627.1l24.1-26.9l9.6-10.5l10.9-11.2l1.6-1.5c0,0,2.2-1.6,4.1-1.1c0,0,5.5-0.4,8.7-5.1l6.6-6.6L393,554
			c0,0,0-1.5-1-1c-1,0.5-16.2,16.2-16.2,16.2s-1.3,0.7-1-1l15.7-16.7c0,0,0.4-1.4-0.9-0.9L373.2,567c0,0-0.7,0.6-1.2,0.1l-57.2,57.2
			C314.7,624.3,316.8,626.2,318.3,627.1z"/>
	</g>
	<g>
		<g>
			<path d="M333.5,574.5c-0.2,0.2-0.5,0.4-0.7,0.6c-0.3,0.3-0.6,0.6-0.8,0.9c0.9,0.4,1.6,0.8,1.6,0.8l1.6,1.5l10.9,11.2l9.6,10.5
				l24.1,26.9c1.5-0.9,3.6-2.7,3.6-2.7L333.5,574.5z"/>
			<path d="M359,596.6l-10.5-9.6l-11.2-10.9l-1.5-1.6c0,0-0.4-0.6-0.8-1.4c-0.4,0.3-0.7,0.6-1.1,0.9c-0.1,0.2-0.3,0.4-0.5,0.5
				c0,0,0,0,0,0l49.7,49.7c0,0,1.9-2.1,2.7-3.6L359,596.6z"/>
		</g>
		<ellipse transform="matrix(0.7071 -0.7071 0.7071 0.7071 -303.2141 391.6575)" cx="321.2" cy="561.8" rx="11" ry="18.4"/>
	</g>
</g>
<g>
	<rect x="298.8" y="183.5" width="6.7" height="25.4"/>
	<rect x="305.5" y="179.2" width="9.3" height="35"/>
	<rect x="314.8" y="174.7" width="10.3" height="43.1"/>
	<rect x="310.1" y="181.6" class="st2" width="3.7" height="10.5"/>
	<rect x="319.4" y="176.4" class="st2" width="3.7" height="10.5"/>
	<rect x="393.6" y="183.5" transform="matrix(-1 -8.992330e-11 8.992330e-11 -1 793.8836 392.4758)" width="6.7" height="25.4"/>
	<rect x="384.2" y="178.3" transform="matrix(-1 -8.968305e-11 8.968305e-11 -1 777.8378 391.5178)" width="9.3" height="35"/>
	<rect x="374" y="174.7" transform="matrix(-1 -8.981894e-11 8.981894e-11 -1 758.1998 392.4758)" width="10.3" height="43.1"/>
	
		<rect x="385.4" y="181.6" transform="matrix(-1 -8.991886e-11 8.991886e-11 -1 774.5374 373.762)" class="st2" width="3.7" height="10.5"/>
	
		<rect x="375.8" y="176.4" transform="matrix(-1 -8.967373e-11 8.967373e-11 -1 755.412 363.4119)" class="st2" width="3.7" height="10.5"/>
	<rect x="321.8" y="190" width="60.8" height="10.5"/>
</g>
<text transform="matrix(1 0 0 1 180 400.3906)" class="st3 st4">Lean</text>
<text transform="matrix(1 0 0 1 210.6624 483.3871)" class="st5 st6">Cuizine</text>
</svg>
