<?xml version="1.0" encoding="utf-8"?>
<!-- Generator: Adobe Illustrator 21.0.0, SVG Export Plug-In . SVG Version: 6.00 Build 0)  -->
<svg version="1.1" id="Layer_1" xmlns="http://www.w3.org/2000/svg" xmlns:xlink="http://www.w3.org/1999/xlink" x="0px" y="0px"
	 viewBox="0 0 100 100" style="enable-background:new 0 0 100 100;" xml:space="preserve">
<g>
	<g>
		<path d="M7.1,89.1L38,61.5l12.1-11L62.9,38l1.7-1.9c0,0,1.9-2.6,1.3-4.7c0,0,0.4-6.3,5.8-10l7.6-7.6L90.9,3.4c0,0,1.7,0,1.1,1.1
			S73.5,23.1,73.5,23.1s-0.8,1.5,1.1,1.1l19.1-18c0,0,1.6-0.4,1.1,1.1L75.9,26.2c0,0-0.7,0.9-0.1,1.4L10.2,93.2
			C10.2,93.2,8.1,90.8,7.1,89.1z"/>
		<path d="M14.3,96.3l27.6-30.9l11-12.1l12.5-12.8l1.9-1.7c0,0,2.6-1.9,4.7-1.3c0,0,6.3-0.4,10-5.8l7.6-7.6L100,12.5
			c0,0,0-1.7-1.1-1.1c-1.1,0.6-18.6,18.6-18.6,18.6s-1.5,0.8-1.1-1.1l18-19.1c0,0,0.4-1.6-1.1-1.1L77.2,27.4c0,0-0.9,0.7-1.4,0.1
			L10.2,93.2C10.2,93.2,12.6,95.3,14.3,96.3z"/>
	</g>
	<g>
		<g>
			<path d="M31.7,36c-0.3,0.3-0.5,0.5-0.8,0.7c-0.3,0.3-0.7,0.7-1,1c1,0.4,1.8,1,1.8,1l1.9,1.7l12.5,12.8l11,12.1l27.6,30.9
				c1.7-1,4.1-3.1,4.1-3.1L31.7,36z"/>
			<path d="M61,61.3l-12.1-11L36.1,37.8L34.4,36c0,0-0.5-0.7-0.9-1.6c-0.4,0.3-0.9,0.6-1.3,1c-0.2,0.2-0.3,0.4-0.5,0.6c0,0,0,0,0,0
				l57,57c0,0,2.1-2.4,3.1-4.1L61,61.3z"/>
		</g>
		<ellipse transform="matrix(0.7071 -0.7071 0.7071 0.7071 -10.0368 18.7208)" cx="17.6" cy="21.5" rx="12.6" ry="21.1"/>
	</g>
</g>
</svg>
