<?xml version="1.0" encoding="utf-8"?>
<!-- Generator: Adobe Illustrator 21.0.0, SVG Export Plug-In . SVG Version: 6.00 Build 0)  -->
<svg version="1.1" id="Layer_1" xmlns="http://www.w3.org/2000/svg" xmlns:xlink="http://www.w3.org/1999/xlink" x="0px" y="0px"
	 viewBox="0 0 701 652.9" style="enable-background:new 0 0 701 652.9;" xml:space="preserve">
<g>
	<path d="M48,602l217-194l85-77l90-88l12-13c0,0,13-18,9-33c0,0,3-44,41-70l53.5-53.5L637,0c0,0,12,0,8,8S514.5,138.5,514.5,138.5
		s-5.5,10.5,8,8L657,20c0,0,11-3,7.5,7.5L532,160c0,0-5,6-1,10L70,631C70,631,55,614,48,602z"/>
	<path d="M99,652.9l194-217l77-85l88-90l13-12c0,0,18-13,33-9c0,0,44-3,70-41l53.5-53.5L701,63.9c0,0,0-12-8-8
		S562.5,186.4,562.5,186.4s-10.5,5.5-8-8L681,43.9c0,0,3-11-7.5-7.5L541,168.9c0,0-6,5-10,1l-461,461C70,630.9,87,645.9,99,652.9z"
		/>
</g>
<path d="M234.2,216.4"/>
<g>
	<g>
		<path d="M221.1,229c-1.8,1.8-3.8,3.4-5.8,4.9c-2.3,2.4-4.6,4.8-6.8,7.3c7.3,2.9,12.6,6.7,12.6,6.7l13,12l88,90l77,85l194,217
			c12-7,29-22,29-22L221.1,229z"/>
		<path d="M426.9,406.9l-85-77l-90-88l-12-13c0,0-3.4-4.7-6.1-11.2c-3.1,2.2-6,4.5-8.9,7c-1.2,1.5-2.4,2.9-3.6,4.1
			c-0.1,0.1-0.1,0.1-0.2,0.2l400.8,400.8c0,0,15-17,22-29L426.9,406.9z"/>
	</g>
	<ellipse transform="matrix(0.7071 -0.7071 0.7071 0.7071 -54.1228 123.3584)" cx="121.8" cy="127" rx="88.3" ry="147.9"/>
</g>
</svg>
