<?xml version="1.0" encoding="utf-8"?>
<!-- Generator: Adobe Illustrator 21.0.0, SVG Export Plug-In . SVG Version: 6.00 Build 0)  -->
<svg version="1.1" id="Layer_1" xmlns="http://www.w3.org/2000/svg" xmlns:xlink="http://www.w3.org/1999/xlink" x="0px" y="0px"
	 viewBox="0 0 100 100" style="enable-background:new 0 0 100 100;" xml:space="preserve">
<style type="text/css">
	.st0{fill:#FFFFFF;}
</style>
<g>
	<rect y="34.2" width="6.6" height="25"/>
	<rect x="6.6" y="30" width="9.2" height="34.4"/>
	<rect x="15.8" y="25.5" width="10.1" height="42.5"/>
	<rect x="11.2" y="32.3" class="st0" width="3.7" height="10.4"/>
	<rect x="20.4" y="27.2" class="st0" width="3.7" height="10.4"/>
	<rect x="93.4" y="34.2" transform="matrix(-1 -8.950853e-11 8.950853e-11 -1 193.3954 93.4991)" width="6.6" height="25"/>
	<rect x="84.2" y="29.1" transform="matrix(-1 -8.848446e-11 8.848446e-11 -1 177.5914 92.5556)" width="9.2" height="34.4"/>
	<rect x="74.1" y="25.5" transform="matrix(-1 -8.993752e-11 8.993752e-11 -1 158.2492 93.4991)" width="10.1" height="42.5"/>
	
		<rect x="85.3" y="32.3" transform="matrix(-1 -9.129421e-11 9.129421e-11 -1 174.3407 75.0673)" class="st0" width="3.7" height="10.4"/>
	
		<rect x="75.9" y="27.2" transform="matrix(-1 -8.731428e-11 8.731428e-11 -1 155.5034 64.8731)" class="st0" width="3.7" height="10.4"/>
	<rect x="22.6" y="40.6" width="59.9" height="10.4"/>
</g>
</svg>
